<?xml version="1.0" encoding="utf-8"?>
<!-- Generator: Adobe Illustrator 25.2.1, SVG Export Plug-In . SVG Version: 6.00 Build 0)  -->
<svg version="1.1" xmlns="http://www.w3.org/2000/svg" xmlns:xlink="http://www.w3.org/1999/xlink" x="0px" y="0px"
	 viewBox="0 0 34 34" style="enable-background:new 0 0 34 34;" xml:space="preserve">
<style type="text/css">
	.st0{fill:#FFFFFF;}
	.st1{fill:#2B88AC;}
	.st2{display:none;}
	.st3{display:inline;}
</style>
<g id="Layer_1">
	<circle class="st0" cx="17" cy="17" r="15"/>
</g>
<g id="_x2D_">
	<g>
		<path class="st1" d="M19.29,18.22h-4.56c-0.34,0-0.5-0.17-0.5-0.5V16.3c0-0.35,0.17-0.53,0.5-0.53h4.56c0.34,0,0.5,0.18,0.5,0.53
			v1.42C19.8,18.05,19.63,18.22,19.29,18.22z"/>
	</g>
</g>
<g id="Layer_3" class="st2">
	<g class="st3">
		<path class="st1" d="M18.22,15.7h3.26c0.21,0,0.35,0.04,0.43,0.13s0.12,0.24,0.12,0.44v1.34c0,0.37-0.18,0.55-0.55,0.55h-3.26
			v3.31c0,0.38-0.19,0.58-0.58,0.58h-1.42c-0.38,0-0.58-0.19-0.58-0.58v-3.31h-3.26c-0.37,0-0.55-0.18-0.55-0.55v-1.34
			c0-0.21,0.04-0.36,0.12-0.44s0.22-0.13,0.43-0.13h3.26v-3.29c0-0.38,0.19-0.58,0.58-0.58h1.42c0.38,0,0.58,0.19,0.58,0.58V15.7z"
			/>
	</g>
</g>
</svg>
